<mxfile host="app.diagrams.net" modified="2021-11-24T14:09:39.555Z" agent="5.0 (Windows)" etag="kzyA9qZSMVBmtEZp-7Cx" version="15.8.5" type="github">
  <diagram id="DL6SR3Jns12UY2ZeA2Pi" name="Page-1">
    <mxGraphModel dx="1038" dy="536" grid="1" gridSize="10" guides="1" tooltips="1" connect="1" arrows="1" fold="1" page="1" pageScale="1" pageWidth="827" pageHeight="1169" math="0" shadow="0">
      <root>
        <mxCell id="0" />
        <mxCell id="1" parent="0" />
        <mxCell id="W6AyKaZFO0cbx5s90EpX-5" style="edgeStyle=orthogonalEdgeStyle;rounded=0;orthogonalLoop=1;jettySize=auto;html=1;exitX=1;exitY=0.5;exitDx=0;exitDy=0;" edge="1" parent="1" source="W6AyKaZFO0cbx5s90EpX-3" target="W6AyKaZFO0cbx5s90EpX-4">
          <mxGeometry relative="1" as="geometry" />
        </mxCell>
        <mxCell id="W6AyKaZFO0cbx5s90EpX-3" value="LIGHT SIGNAL" style="rounded=0;whiteSpace=wrap;html=1;" vertex="1" parent="1">
          <mxGeometry x="20" y="80" width="60" height="80" as="geometry" />
        </mxCell>
        <mxCell id="W6AyKaZFO0cbx5s90EpX-7" style="edgeStyle=orthogonalEdgeStyle;rounded=0;orthogonalLoop=1;jettySize=auto;html=1;exitX=1;exitY=0.5;exitDx=0;exitDy=0;entryX=0;entryY=0.5;entryDx=0;entryDy=0;" edge="1" parent="1" source="W6AyKaZFO0cbx5s90EpX-4" target="W6AyKaZFO0cbx5s90EpX-6">
          <mxGeometry relative="1" as="geometry" />
        </mxCell>
        <mxCell id="W6AyKaZFO0cbx5s90EpX-4" value="Light sensor" style="rounded=1;whiteSpace=wrap;html=1;" vertex="1" parent="1">
          <mxGeometry x="120" y="90" width="110" height="60" as="geometry" />
        </mxCell>
        <mxCell id="W6AyKaZFO0cbx5s90EpX-12" style="edgeStyle=orthogonalEdgeStyle;rounded=0;orthogonalLoop=1;jettySize=auto;html=1;exitX=1;exitY=0.5;exitDx=0;exitDy=0;entryX=0;entryY=0.5;entryDx=0;entryDy=0;fontSize=30;strokeColor=#000000;" edge="1" parent="1" source="W6AyKaZFO0cbx5s90EpX-6" target="W6AyKaZFO0cbx5s90EpX-9">
          <mxGeometry relative="1" as="geometry" />
        </mxCell>
        <mxCell id="W6AyKaZFO0cbx5s90EpX-6" value="Analog signal processing" style="rounded=1;whiteSpace=wrap;html=1;" vertex="1" parent="1">
          <mxGeometry x="280" y="90" width="120" height="60" as="geometry" />
        </mxCell>
        <mxCell id="W6AyKaZFO0cbx5s90EpX-21" style="edgeStyle=orthogonalEdgeStyle;rounded=0;orthogonalLoop=1;jettySize=auto;html=1;exitX=1;exitY=0.5;exitDx=0;exitDy=0;entryX=0.5;entryY=0;entryDx=0;entryDy=0;fontSize=30;strokeColor=#000000;dashed=1;" edge="1" parent="1" source="W6AyKaZFO0cbx5s90EpX-9" target="W6AyKaZFO0cbx5s90EpX-20">
          <mxGeometry relative="1" as="geometry" />
        </mxCell>
        <mxCell id="W6AyKaZFO0cbx5s90EpX-9" value="&lt;font style=&quot;font-size: 30px&quot;&gt;M5&lt;/font&gt;" style="shape=hexagon;perimeter=hexagonPerimeter2;whiteSpace=wrap;html=1;fixedSize=1;" vertex="1" parent="1">
          <mxGeometry x="470" y="80" width="120" height="80" as="geometry" />
        </mxCell>
        <mxCell id="W6AyKaZFO0cbx5s90EpX-13" style="edgeStyle=orthogonalEdgeStyle;rounded=0;orthogonalLoop=1;jettySize=auto;html=1;exitX=1;exitY=0.5;exitDx=0;exitDy=0;" edge="1" parent="1" source="W6AyKaZFO0cbx5s90EpX-14">
          <mxGeometry relative="1" as="geometry">
            <mxPoint x="120" y="210" as="targetPoint" />
          </mxGeometry>
        </mxCell>
        <mxCell id="W6AyKaZFO0cbx5s90EpX-14" value="SOUND SIGNAL" style="rounded=0;whiteSpace=wrap;html=1;" vertex="1" parent="1">
          <mxGeometry x="20" y="170" width="60" height="80" as="geometry" />
        </mxCell>
        <mxCell id="W6AyKaZFO0cbx5s90EpX-17" style="edgeStyle=orthogonalEdgeStyle;rounded=0;orthogonalLoop=1;jettySize=auto;html=1;exitX=1;exitY=0.5;exitDx=0;exitDy=0;entryX=0;entryY=0.5;entryDx=0;entryDy=0;fontSize=30;strokeColor=#000000;" edge="1" parent="1" source="W6AyKaZFO0cbx5s90EpX-18" target="W6AyKaZFO0cbx5s90EpX-19">
          <mxGeometry relative="1" as="geometry" />
        </mxCell>
        <mxCell id="W6AyKaZFO0cbx5s90EpX-18" value="Analog signal processing" style="rounded=1;whiteSpace=wrap;html=1;" vertex="1" parent="1">
          <mxGeometry x="120" y="180" width="120" height="60" as="geometry" />
        </mxCell>
        <mxCell id="W6AyKaZFO0cbx5s90EpX-22" style="edgeStyle=orthogonalEdgeStyle;rounded=0;orthogonalLoop=1;jettySize=auto;html=1;exitX=1;exitY=0.5;exitDx=0;exitDy=0;fontSize=30;strokeColor=#000000;dashed=1;" edge="1" parent="1" source="W6AyKaZFO0cbx5s90EpX-19" target="W6AyKaZFO0cbx5s90EpX-20">
          <mxGeometry relative="1" as="geometry" />
        </mxCell>
        <mxCell id="W6AyKaZFO0cbx5s90EpX-19" value="&lt;font style=&quot;font-size: 30px&quot;&gt;M5&lt;/font&gt;" style="shape=hexagon;perimeter=hexagonPerimeter2;whiteSpace=wrap;html=1;fixedSize=1;" vertex="1" parent="1">
          <mxGeometry x="470" y="170" width="120" height="80" as="geometry" />
        </mxCell>
        <mxCell id="W6AyKaZFO0cbx5s90EpX-24" style="edgeStyle=orthogonalEdgeStyle;rounded=0;orthogonalLoop=1;jettySize=auto;html=1;exitX=0;exitY=0.5;exitDx=0;exitDy=0;entryX=1;entryY=0.5;entryDx=0;entryDy=0;dashed=1;fontSize=30;strokeColor=#000000;" edge="1" parent="1" source="W6AyKaZFO0cbx5s90EpX-20" target="W6AyKaZFO0cbx5s90EpX-23">
          <mxGeometry relative="1" as="geometry" />
        </mxCell>
        <mxCell id="W6AyKaZFO0cbx5s90EpX-20" value="&lt;font style=&quot;font-size: 30px&quot;&gt;M5&lt;/font&gt;" style="shape=hexagon;perimeter=hexagonPerimeter2;whiteSpace=wrap;html=1;fixedSize=1;" vertex="1" parent="1">
          <mxGeometry x="620" y="300" width="120" height="80" as="geometry" />
        </mxCell>
        <mxCell id="W6AyKaZFO0cbx5s90EpX-27" style="edgeStyle=orthogonalEdgeStyle;rounded=0;orthogonalLoop=1;jettySize=auto;html=1;exitX=0;exitY=0.5;exitDx=0;exitDy=0;dashed=1;fontSize=30;strokeColor=#000000;" edge="1" parent="1" source="W6AyKaZFO0cbx5s90EpX-23" target="W6AyKaZFO0cbx5s90EpX-26">
          <mxGeometry relative="1" as="geometry" />
        </mxCell>
        <mxCell id="W6AyKaZFO0cbx5s90EpX-23" value="&lt;font style=&quot;font-size: 30px&quot;&gt;M5&lt;/font&gt;" style="shape=hexagon;perimeter=hexagonPerimeter2;whiteSpace=wrap;html=1;fixedSize=1;" vertex="1" parent="1">
          <mxGeometry x="470" y="300" width="120" height="80" as="geometry" />
        </mxCell>
        <mxCell id="W6AyKaZFO0cbx5s90EpX-25" value="MOTOR" style="whiteSpace=wrap;html=1;fontSize=30;" vertex="1" parent="1">
          <mxGeometry x="20" y="295" width="140" height="90" as="geometry" />
        </mxCell>
        <mxCell id="W6AyKaZFO0cbx5s90EpX-28" style="edgeStyle=orthogonalEdgeStyle;rounded=0;orthogonalLoop=1;jettySize=auto;html=1;exitX=0;exitY=0.5;exitDx=0;exitDy=0;entryX=1;entryY=0.5;entryDx=0;entryDy=0;fontSize=30;strokeColor=#000000;" edge="1" parent="1" source="W6AyKaZFO0cbx5s90EpX-26" target="W6AyKaZFO0cbx5s90EpX-25">
          <mxGeometry relative="1" as="geometry" />
        </mxCell>
        <mxCell id="W6AyKaZFO0cbx5s90EpX-26" value="Analog signal processing" style="rounded=1;whiteSpace=wrap;html=1;" vertex="1" parent="1">
          <mxGeometry x="280" y="310" width="120" height="60" as="geometry" />
        </mxCell>
      </root>
    </mxGraphModel>
  </diagram>
</mxfile>
